# xmcd
#
# Track frame offsets: 
#        225
#        18439
#        32752
#        44005
#        59255
#        78680
#        92484
#        109551
#        119439
#        136040
#        147420
#        160402
#        179191
#        190578
#        203929
#        214946
#
# Disc length: 3129 seconds
#
# Revision: 4
# Processed by: cddbd v1.5.2PL0 Copyright (c) Steve Scherf et al.
# Submitted via: ExactAudioCopy v0.99pb5
#
DISCID=eb0c3610
DTITLE=Nina Simone - Most Famous Hits - CD2
DYEAR=2000
DGENRE=Jazz
TTITLE0=My Baby Just Cares for Me
TTITLE1=Private Jenny
TTITLE2=For A While
TTITLE3=You Took My Teeth
TTITLE4=Sugar In My Bowl
TTITLE5=Backlash Blues
TTITLE6=Do What You Gotta Do
TTITLE7=Mississippi Goddamm
TTITLE8=See Lime Woman
TTITLE9=The Other Woman
TTITLE10=Four Women
TTITLE11=Sing Just To Know That I Am Alive
TTITLE12=You Must Have Another Lover
TTITLE13=Touching And Caring
TTITLE14=It's Cold Out There
TTITLE15=Porgy
EXTD=
EXTT0=
EXTT1=
EXTT2=
EXTT3=
EXTT4=
EXTT5=
EXTT6=
EXTT7=
EXTT8=
EXTT9=
EXTT10=
EXTT11=
EXTT12=
EXTT13=
EXTT14=
EXTT15=
PLAYORDER=
